<svg width="9" height="8" viewBox="0 0 9 8" fill="none" xmlns="http://www.w3.org/2000/svg">
<path d="M4.74281 0.336947C4.81089 0.216781 4.74281 0.0565601 4.60265 0.040538C3.55346 -0.107666 2.48025 0.152693 1.62328 0.785566C1.54719 0.845649 1.52316 0.957804 1.57522 1.04593L2.78059 3.13681C2.85667 3.26899 3.04889 3.26899 3.12898 3.13681L4.74281 0.336947ZM7.7422 2.52797C7.34976 1.5386 6.57288 0.741505 5.59978 0.32493C5.50767 0.284875 5.39955 0.32493 5.34749 0.413052L4.14213 2.49993C4.06604 2.62811 4.16215 2.79634 4.31833 2.79634H7.55399C7.69415 2.79634 7.79426 2.65615 7.7422 2.52797ZM7.77023 3.19689H5.28742C5.13525 3.19689 5.03514 3.36512 5.11523 3.49731L6.82116 6.45739C6.88924 6.57756 7.06143 6.59758 7.14953 6.48943C7.84632 5.61623 8.14266 4.47465 7.97046 3.36913C7.96366 3.32101 7.9396 3.277 7.90276 3.24531C7.86592 3.21362 7.81882 3.19641 7.77023 3.19689ZM0.886444 1.51057C0.542917 1.94651 0.292756 2.44851 0.151526 2.98531C0.0102958 3.52212 -0.0189818 4.08226 0.0655147 4.63087C0.0775283 4.727 0.165628 4.7991 0.265741 4.7991H2.74855C2.90072 4.7991 3.00084 4.63087 2.92075 4.49869L1.21482 1.54261C1.14273 1.42244 0.970539 1.40242 0.886444 1.51057ZM0.293773 5.46803C0.686217 6.45739 1.4631 7.25449 2.4362 7.67106C2.5283 7.71112 2.63642 7.67106 2.68848 7.58294L3.89385 5.49606C3.91112 5.46567 3.92017 5.43129 3.9201 5.39633C3.92004 5.36137 3.91086 5.32703 3.89347 5.2967C3.87609 5.26637 3.85109 5.24109 3.82096 5.22337C3.79083 5.20565 3.7566 5.1961 3.72165 5.19565H0.481986C0.341827 5.19965 0.241714 5.33985 0.293773 5.46803ZM3.42932 7.95946C4.47851 8.10767 5.55172 7.84731 6.40869 7.21443C6.48878 7.15435 6.51281 7.03819 6.46075 6.95007L5.25539 4.85919C5.23744 4.82897 5.21194 4.80394 5.1814 4.78656C5.15086 4.76918 5.11633 4.76004 5.08119 4.76004C5.04605 4.76004 5.01152 4.76918 4.98098 4.78656C4.95044 4.80394 4.92494 4.82897 4.90699 4.85919L3.28916 7.65905C3.22109 7.77921 3.29317 7.93943 3.42932 7.95946Z" fill="#7216F4"/>
</svg>
