
<svg width="41" height="12" viewBox="0 0 41 12" fill="none" xmlns="http://www.w3.org/2000/svg">
<path d="M13.7864 3.424V4.016H11.3624V5.896H13.3304V6.488H11.3624V9H10.6344V3.424H13.7864ZM16.5776 9.072C16.1669 9.072 15.7936 8.97867 15.4576 8.792C15.1269 8.60533 14.8656 8.34133 14.6736 8C14.4869 7.65333 14.3936 7.25333 14.3936 6.8C14.3936 6.352 14.4896 5.95733 14.6816 5.616C14.8789 5.26933 15.1456 5.00533 15.4816 4.824C15.8176 4.63733 16.1936 4.544 16.6096 4.544C17.0256 4.544 17.4016 4.63733 17.7376 4.824C18.0736 5.00533 18.3376 5.26667 18.5296 5.608C18.7269 5.94933 18.8256 6.34667 18.8256 6.8C18.8256 7.25333 18.7243 7.65333 18.5216 8C18.3243 8.34133 18.0549 8.60533 17.7136 8.792C17.3723 8.97867 16.9936 9.072 16.5776 9.072ZM16.5776 8.432C16.8389 8.432 17.0843 8.37067 17.3136 8.248C17.5429 8.12533 17.7269 7.94133 17.8656 7.696C18.0096 7.45067 18.0816 7.152 18.0816 6.8C18.0816 6.448 18.0123 6.14933 17.8736 5.904C17.7349 5.65867 17.5536 5.47733 17.3296 5.36C17.1056 5.23733 16.8629 5.176 16.6016 5.176C16.3349 5.176 16.0896 5.23733 15.8656 5.36C15.6469 5.47733 15.4709 5.65867 15.3376 5.904C15.2043 6.14933 15.1376 6.448 15.1376 6.8C15.1376 7.15733 15.2016 7.45867 15.3296 7.704C15.4629 7.94933 15.6389 8.13333 15.8576 8.256C16.0763 8.37333 16.3163 8.432 16.5776 8.432ZM20.6708 5.216V7.8C20.6708 8.01333 20.7161 8.16533 20.8068 8.256C20.8975 8.34133 21.0548 8.384 21.2788 8.384H21.8148V9H21.1588C20.7535 9 20.4495 8.90667 20.2468 8.72C20.0441 8.53333 19.9428 8.22667 19.9428 7.8V5.216H19.3748V4.616H19.9428V3.512H20.6708V4.616H21.8148V5.216H20.6708ZM24.6089 9.072C24.1982 9.072 23.8249 8.97867 23.4889 8.792C23.1582 8.60533 22.8969 8.34133 22.7049 8C22.5182 7.65333 22.4249 7.25333 22.4249 6.8C22.4249 6.352 22.5209 5.95733 22.7129 5.616C22.9102 5.26933 23.1769 5.00533 23.5129 4.824C23.8489 4.63733 24.2249 4.544 24.6409 4.544C25.0569 4.544 25.4329 4.63733 25.7689 4.824C26.1049 5.00533 26.3689 5.26667 26.5609 5.608C26.7582 5.94933 26.8569 6.34667 26.8569 6.8C26.8569 7.25333 26.7555 7.65333 26.5529 8C26.3555 8.34133 26.0862 8.60533 25.7449 8.792C25.4035 8.97867 25.0249 9.072 24.6089 9.072ZM24.6089 8.432C24.8702 8.432 25.1155 8.37067 25.3449 8.248C25.5742 8.12533 25.7582 7.94133 25.8969 7.696C26.0409 7.45067 26.1129 7.152 26.1129 6.8C26.1129 6.448 26.0435 6.14933 25.9049 5.904C25.7662 5.65867 25.5849 5.47733 25.3609 5.36C25.1369 5.23733 24.8942 5.176 24.6329 5.176C24.3662 5.176 24.1209 5.23733 23.8969 5.36C23.6782 5.47733 23.5022 5.65867 23.3689 5.904C23.2355 6.14933 23.1689 6.448 23.1689 6.8C23.1689 7.15733 23.2329 7.45867 23.3609 7.704C23.4942 7.94933 23.6702 8.13333 23.8889 8.256C24.1075 8.37333 24.3475 8.432 24.6089 8.432ZM28.542 5.328C28.67 5.07733 28.8514 4.88267 29.086 4.744C29.326 4.60533 29.6167 4.536 29.958 4.536V5.288H29.766C28.95 5.288 28.542 5.73067 28.542 6.616V9H27.814V4.616H28.542V5.328ZM31.1744 3.904C31.0358 3.904 30.9184 3.856 30.8224 3.76C30.7264 3.664 30.6784 3.54667 30.6784 3.408C30.6784 3.26933 30.7264 3.152 30.8224 3.056C30.9184 2.96 31.0358 2.912 31.1744 2.912C31.3078 2.912 31.4198 2.96 31.5104 3.056C31.6064 3.152 31.6544 3.26933 31.6544 3.408C31.6544 3.54667 31.6064 3.664 31.5104 3.76C31.4198 3.856 31.3078 3.904 31.1744 3.904ZM31.5264 4.616V9H30.7984V4.616H31.5264ZM34.5512 5.216H33.6312V9H32.9032V5.216H32.3352V4.616H32.9032V4.304C32.9032 3.81333 33.0285 3.456 33.2792 3.232C33.5352 3.00267 33.9432 2.888 34.5032 2.888V3.496C34.1832 3.496 33.9565 3.56 33.8232 3.688C33.6952 3.81067 33.6312 4.016 33.6312 4.304V4.616H34.5512V5.216ZM39.176 4.616L36.536 11.064H35.784L36.648 8.952L34.88 4.616H35.688L37.064 8.168L38.424 4.616H39.176Z" fill="white"/>
<path d="M4.74281 2.33695C4.81089 2.21678 4.74281 2.05656 4.60265 2.04054C3.55346 1.89233 2.48025 2.15269 1.62328 2.78557C1.54719 2.84565 1.52316 2.9578 1.57522 3.04593L2.78059 5.13681C2.85667 5.26899 3.04889 5.26899 3.12898 5.13681L4.74281 2.33695ZM7.7422 4.52797C7.34976 3.5386 6.57288 2.74151 5.59978 2.32493C5.50767 2.28488 5.39955 2.32493 5.34749 2.41305L4.14213 4.49993C4.06604 4.62811 4.16215 4.79634 4.31833 4.79634H7.55399C7.69415 4.79634 7.79426 4.65615 7.7422 4.52797ZM7.77023 5.19689H5.28742C5.13525 5.19689 5.03514 5.36512 5.11523 5.49731L6.82116 8.45739C6.88924 8.57756 7.06143 8.59758 7.14953 8.48943C7.84632 7.61623 8.14266 6.47465 7.97046 5.36913C7.96366 5.32101 7.9396 5.277 7.90276 5.24531C7.86592 5.21362 7.81882 5.19641 7.77023 5.19689ZM0.886444 3.51057C0.542917 3.94651 0.292756 4.44851 0.151526 4.98531C0.0102958 5.52212 -0.0189818 6.08226 0.0655147 6.63087C0.0775283 6.727 0.165628 6.7991 0.265741 6.7991H2.74855C2.90072 6.7991 3.00084 6.63087 2.92075 6.49869L1.21482 3.54261C1.14273 3.42244 0.970539 3.40242 0.886444 3.51057ZM0.293773 7.46803C0.686217 8.45739 1.4631 9.25449 2.4362 9.67106C2.5283 9.71112 2.63642 9.67106 2.68848 9.58294L3.89385 7.49606C3.91112 7.46567 3.92017 7.43129 3.9201 7.39633C3.92004 7.36137 3.91086 7.32703 3.89347 7.2967C3.87609 7.26637 3.85109 7.24109 3.82096 7.22337C3.79083 7.20565 3.7566 7.1961 3.72165 7.19565H0.481986C0.341827 7.19965 0.241714 7.33985 0.293773 7.46803ZM3.42932 9.95946C4.47851 10.1077 5.55172 9.84731 6.40869 9.21443C6.48878 9.15435 6.51281 9.03819 6.46075 8.95007L5.25539 6.85919C5.23744 6.82897 5.21194 6.80394 5.1814 6.78656C5.15086 6.76918 5.11633 6.76004 5.08119 6.76004C5.04605 6.76004 5.01152 6.76918 4.98098 6.78656C4.95044 6.80394 4.92494 6.82897 4.90699 6.85919L3.28916 9.65905C3.22109 9.77921 3.29317 9.93943 3.42932 9.95946Z" fill="#7216F4"/>
</svg>
